<svg width="317" height="271" viewBox="0 0 317 271" fill="none" xmlns="http://www.w3.org/2000/svg">
<rect width="317" height="271" rx="26" fill="white"/>
<path d="M98.4174 89.448H97.1054V81.848H98.4174V89.448ZM94.4014 85.704C94.4014 87.624 92.8174 88.92 90.6894 88.92C88.5614 88.92 86.9934 87.624 86.9934 85.704C86.9934 83.784 88.5614 82.488 90.6894 82.488C92.8174 82.488 94.4014 83.784 94.4014 85.704ZM88.2574 85.704C88.2574 86.936 89.2974 87.848 90.6894 87.848C92.0974 87.848 93.1214 86.936 93.1214 85.704C93.1214 84.472 92.0974 83.56 90.6894 83.56C89.2974 83.56 88.2574 84.472 88.2574 85.704ZM89.7454 94.984C91.5854 94.984 92.7214 94.936 94.1774 94.68L94.3054 95.672C92.6894 95.976 91.4414 95.992 89.3454 95.992H88.4814V92.456H91.9214V91.096H88.4494V90.104H93.2014V93.416H89.7454V94.984ZM98.4174 90.104V96.088H97.1214V91.16H93.8094V90.104H98.4174ZM107.656 88.04C104.584 88.04 102.616 86.984 102.616 85.192C102.616 83.4 104.584 82.328 107.656 82.328C110.728 82.328 112.696 83.4 112.696 85.192C112.696 86.984 110.728 88.04 107.656 88.04ZM107.656 83.384C105.4 83.384 103.96 84.04 103.96 85.192C103.96 86.344 105.4 86.984 107.656 86.984C109.912 86.984 111.352 86.344 111.352 85.192C111.352 84.04 109.912 83.384 107.656 83.384ZM114.136 90.44H101.16V89.384H114.136V90.44ZM112.712 94.792V95.864H102.84V91.704H104.152V94.792H112.712ZM120.785 88.024V82.296H122.081V84.12H129.057V82.296H130.353V88.024H120.785ZM122.081 85.128V86.984H129.057V85.128H122.081ZM132.081 90.472H126.321V93.256H125.009V90.472H119.041V89.416H132.081V90.472ZM130.625 94.792V95.864H120.705V91.96H122.001V94.792H130.625ZM144.728 87.096H146.856V88.184H144.728V90.52H143.416V81.848H144.728V84.072H146.856V85.16H144.728V87.096ZM142.168 89.208C139.912 89.592 138.008 89.672 135.352 89.672H134.216V85.608H139.352V83.8H134.184V82.728H140.648V86.616H135.512V88.6C138.024 88.6 139.864 88.52 142.04 88.136L142.168 89.208ZM140.152 90.936C143.048 90.936 144.872 91.896 144.872 93.56C144.872 95.224 143.048 96.168 140.152 96.168C137.224 96.168 135.432 95.224 135.432 93.56C135.432 91.896 137.224 90.936 140.152 90.936ZM140.152 95.16C142.344 95.16 143.576 94.584 143.576 93.56C143.576 92.536 142.344 91.96 140.152 91.96C137.96 91.96 136.712 92.536 136.712 93.56C136.712 94.584 137.96 95.16 140.152 95.16ZM159.854 96.216H158.542V81.832H159.854V96.216ZM152.286 82.936C154.414 82.936 155.934 84.888 155.934 87.944C155.934 91 154.414 92.952 152.286 92.952C150.158 92.952 148.638 91 148.638 87.944C148.638 84.888 150.158 82.936 152.286 82.936ZM152.286 84.12C150.878 84.12 149.886 85.624 149.886 87.944C149.886 90.28 150.878 91.784 152.286 91.784C153.678 91.784 154.67 90.28 154.67 87.944C154.67 85.624 153.678 84.12 152.286 84.12ZM179.271 86.152H177.143V89.144H175.831V81.832H177.143V85.048H179.271V86.152ZM166.599 88.632V82.76H173.191V88.632H166.599ZM167.879 83.816V87.592H171.911V83.816H167.879ZM178.567 90.616V91.592H171.351V90.616H174.327V89.352H175.607V90.616H178.567ZM168.791 94.728C169.623 94.68 170.647 94.568 171.671 94.248L171.879 95.288C170.519 95.736 169.175 95.816 168.199 95.816H167.511V90.472H168.791V94.728ZM174.967 92.12C176.503 92.12 177.623 92.92 177.623 94.136C177.623 95.416 176.519 96.168 174.967 96.168C173.415 96.168 172.311 95.416 172.311 94.136C172.311 92.92 173.431 92.12 174.967 92.12ZM174.967 95.24C175.863 95.24 176.455 94.824 176.455 94.136C176.455 93.48 175.863 93.064 174.967 93.064C174.071 93.064 173.479 93.48 173.479 94.136C173.479 94.824 174.071 95.24 174.967 95.24ZM192.27 96.184H190.958V81.848H192.27V96.184ZM185.646 86.216C185.646 88.648 187.374 91.128 189.486 92.024L188.75 93.08C187.086 92.312 185.678 90.664 184.99 88.696C184.35 90.776 182.894 92.632 181.294 93.432L180.526 92.376C182.59 91.384 184.334 88.696 184.334 86.216V84.392H181.006V83.304H189.022V84.392H185.646V86.216ZM211.687 86.136H209.559V88.984H208.247V81.832H209.559V85.048H211.687V86.136ZM206.103 85.96C206.103 87.928 204.535 89.272 202.407 89.272C200.279 89.272 198.695 87.928 198.695 85.96C198.695 83.992 200.279 82.648 202.407 82.648C204.535 82.648 206.103 83.992 206.103 85.96ZM199.975 85.96C199.975 87.272 201.015 88.2 202.407 88.2C203.767 88.2 204.823 87.272 204.823 85.96C204.823 84.648 203.767 83.72 202.407 83.72C201.015 83.72 199.975 84.648 199.975 85.96ZM210.983 90.632V91.608H203.767V90.632H206.743V89.336H208.023V90.632H210.983ZM201.207 94.728C202.039 94.68 203.063 94.568 204.087 94.248L204.295 95.288C202.935 95.736 201.591 95.816 200.615 95.816H199.927V90.536H201.207V94.728ZM207.383 92.12C208.919 92.12 210.039 92.92 210.039 94.136C210.039 95.416 208.935 96.168 207.383 96.168C205.831 96.168 204.727 95.416 204.727 94.136C204.727 92.92 205.847 92.12 207.383 92.12ZM207.383 95.24C208.279 95.24 208.871 94.792 208.871 94.136C208.871 93.48 208.279 93.048 207.383 93.048C206.487 93.048 205.895 93.48 205.895 94.136C205.895 94.792 206.487 95.24 207.383 95.24ZM223.982 88.664V96.184H222.67V81.848H223.982V87.56H226.35V88.664H223.982ZM216.766 82.936C218.878 82.936 220.366 84.888 220.366 87.944C220.366 91 218.878 92.952 216.766 92.952C214.638 92.952 213.15 91 213.15 87.944C213.15 84.888 214.638 82.936 216.766 82.936ZM216.766 91.784C218.126 91.784 219.118 90.28 219.118 87.944C219.118 85.624 218.126 84.12 216.766 84.12C215.374 84.12 214.398 85.624 214.398 87.944C214.398 90.28 215.374 91.784 216.766 91.784ZM32.8161 112.416L31.6801 116H30.1761L34.1601 104.272H35.8081L39.7921 116H38.2241L37.1041 112.416H32.8161ZM36.1761 109.44C35.7441 108.096 35.3761 106.832 34.9921 105.472H34.9281C34.5601 106.88 34.1921 108.096 33.7601 109.44L33.1841 111.232H36.7361L36.1761 109.44ZM42.7349 104.272V116H41.2469V104.272H42.7349ZM61.3845 115.344H48.3445V114.256H51.5445V110.384C50.3285 109.76 49.6245 108.72 49.6245 107.424C49.6245 105.2 51.8005 103.744 54.8405 103.744C57.8965 103.744 60.0565 105.2 60.0565 107.424C60.0565 108.72 59.3845 109.744 58.1685 110.368V114.256H61.3845V115.344ZM54.8405 104.768C52.5365 104.768 50.8885 105.824 50.8885 107.424C50.8885 109.024 52.5365 110.08 54.8405 110.08C57.1445 110.08 58.8085 109.024 58.8085 107.424C58.8085 105.824 57.1445 104.768 54.8405 104.768ZM56.8565 114.256V110.88C56.1685 111.024 55.4965 111.104 54.8405 111.104C54.1365 111.104 53.4805 111.024 52.8565 110.88V114.256H56.8565ZM74.0153 108.096H76.1113V109.168H74.0153V111.36H72.7033V102.848H74.0153V105.024H76.1113V106.112H74.0153V108.096ZM70.6393 107.088C70.6393 109.088 69.0553 110.48 66.8953 110.48C64.7193 110.48 63.1513 109.088 63.1513 107.088C63.1513 105.088 64.7193 103.696 66.8953 103.696C69.0553 103.696 70.6393 105.088 70.6393 107.088ZM64.4313 107.088C64.4313 108.432 65.4553 109.376 66.8953 109.376C68.3193 109.376 69.3593 108.432 69.3593 107.088C69.3593 105.728 68.3193 104.8 66.8953 104.8C65.4553 104.8 64.4313 105.728 64.4313 107.088ZM74.0153 112.032V117.184H72.7033V113.104H64.6873V112.032H74.0153ZM87.7361 105.936C86.8401 108.192 84.6961 109.728 81.4801 110.48L81.0001 109.408C84.5681 108.592 86.5041 106.928 86.7441 104.608H81.7521V103.536H88.1681C88.1681 104 88.1201 104.464 88.0241 104.912H91.2721V102.832H92.6001V110.16H91.2721V108.672H87.5281V107.648H91.2721V105.936H87.7361ZM93.0801 117.04H83.3841V113.344H91.2881V111.872H83.3521V110.816H92.6001V114.336H84.6801V116H93.0801V117.04ZM106.303 109.936V117.184H104.991V102.832H106.303V108.832H108.591V109.936H106.303ZM101.471 110.752C101.871 108.368 101.903 106.624 101.903 105.472H95.9349V104.4H103.183V105.184C103.183 106.336 103.183 108.176 102.783 110.88L101.471 110.752ZM99.4869 112.88C101.087 112.816 102.639 112.736 104.111 112.544L104.191 113.504C101.215 113.968 97.8549 114.048 95.2949 114.048L95.1509 112.96C96.0629 112.96 97.1029 112.96 98.1909 112.912V108.496H99.4869V112.88ZM126.424 108.784H124.312V113.824H123V102.848H124.312V107.696H126.424V108.784ZM122.2 111.104C119.224 111.664 115.8 111.696 113.352 111.696L113.176 110.624C114.28 110.624 115.56 110.608 116.904 110.56V109.12C115.16 108.912 114.008 107.856 114.008 106.32C114.008 104.64 115.448 103.504 117.544 103.504C119.64 103.504 121.08 104.64 121.08 106.32C121.08 107.856 119.944 108.896 118.216 109.104V110.512C119.56 110.432 120.872 110.336 122.104 110.144L122.2 111.104ZM115.224 106.32C115.224 107.424 116.136 108.144 117.544 108.144C118.888 108.144 119.848 107.424 119.848 106.32C119.848 105.232 118.888 104.496 117.544 104.496C116.136 104.496 115.224 105.232 115.224 106.32ZM124.824 115.776V116.848H115.24V112.896H116.552V115.776H124.824ZM135.087 106.96V105.888H138.207V102.848H139.535V111.328H138.207V106.96H135.087ZM135.423 110.656C133.823 110.064 132.639 108.928 132.015 107.44C131.391 109.168 130.111 110.432 128.383 111.088L127.695 110.016C129.919 109.248 131.327 107.296 131.327 105.12V103.648H132.639V105.072C132.639 107.104 134.015 108.896 136.127 109.632L135.423 110.656ZM134.799 111.76C137.743 111.76 139.567 112.736 139.567 114.464C139.567 116.176 137.743 117.168 134.799 117.168C131.855 117.168 130.015 116.176 130.015 114.464C130.015 112.736 131.855 111.76 134.799 111.76ZM134.799 116.128C136.991 116.128 138.271 115.504 138.271 114.464C138.271 113.376 136.991 112.784 134.799 112.784C132.607 112.784 131.327 113.376 131.327 114.464C131.327 115.504 132.607 116.128 134.799 116.128ZM155.253 115.376H142.213V114.288H148.053V110.608H143.877V103.984H153.605V105.056H145.189V109.552H153.749V110.608H149.381V114.288H155.253V115.376ZM167.788 109.744V117.184H166.476V102.832H167.788V108.656H170.092V109.744H167.788ZM164.076 104.368C164.076 108.448 162.204 112.16 157.564 114.464L156.844 113.44C160.572 111.568 162.476 108.912 162.78 105.456H157.516V104.368H164.076ZM187.909 107.424H185.781V110.96H184.469V102.816H185.781V106.336H187.909V107.424ZM183.189 109.2C180.741 109.696 178.645 109.84 176.469 109.84H175.349V103.616H176.645V108.736C178.709 108.72 180.709 108.576 183.013 108.112L183.189 109.2ZM182.037 112.736C182.085 114.304 184.229 115.728 186.581 116.112L186.069 117.12C184.325 116.816 182.245 115.872 181.349 114.256C180.533 115.712 178.693 116.768 176.613 117.104L176.101 116.096C178.549 115.712 180.581 114.352 180.661 112.736H176.645V111.68H186.021V112.736H182.037ZM195.644 108.048C192.492 108.048 190.604 107.184 190.604 105.568C190.604 103.952 192.492 103.072 195.644 103.072C198.796 103.072 200.684 103.952 200.684 105.568C200.684 107.184 198.796 108.048 195.644 108.048ZM195.644 104.064C193.26 104.064 191.948 104.608 191.948 105.568C191.948 106.528 193.26 107.072 195.644 107.072C198.028 107.072 199.34 106.528 199.34 105.568C199.34 104.608 198.028 104.064 195.644 104.064ZM202.14 110.08H189.148V109.024H202.14V110.08ZM200.908 116V117.024H190.764V113.584H199.18V112.304H190.716V111.312H200.476V114.544H192.044V116H200.908ZM218.869 109.36C216.629 108.976 214.501 107.744 213.557 106C212.661 107.744 210.485 108.976 208.261 109.36L207.733 108.304C210.357 107.92 212.869 106.208 212.869 104.144V103.344H214.245V104.144C214.245 106.144 216.805 107.92 219.413 108.304L218.869 109.36ZM214.181 112V117.2H212.869V112H207.077V110.912H220.037L220.053 112H214.181ZM235.421 111.04V102.848H236.733V111.04H235.421ZM229.021 110.368C226.861 110.368 225.293 109.008 225.293 107.024C225.293 105.04 226.861 103.68 229.021 103.68C231.197 103.68 232.781 105.04 232.781 107.024C232.781 109.008 231.197 110.368 229.021 110.368ZM229.021 104.768C227.597 104.768 226.573 105.696 226.573 107.024C226.573 108.352 227.597 109.28 229.021 109.28C230.445 109.28 231.501 108.352 231.501 107.024C231.501 105.696 230.445 104.768 229.021 104.768ZM235.133 112.432C235.133 113.92 236.173 115.408 238.013 116L237.357 116.992C235.949 116.48 234.973 115.504 234.477 114.288C234.029 115.456 233.165 116.544 231.821 117.12C230.413 116.56 229.581 115.552 229.149 114.336C228.637 115.488 227.661 116.48 226.317 116.992L225.661 116C227.469 115.36 228.541 113.824 228.541 112.432V111.664H229.805V112.432C229.805 113.712 230.445 115.056 231.789 115.84C233.165 114.976 233.853 113.552 233.853 112.432V111.664H235.133V112.432ZM251.236 108.368C249.012 108.032 246.884 106.896 245.972 105.296C245.06 106.896 242.948 108.032 240.692 108.368L240.212 107.312C242.788 107.008 245.3 105.456 245.3 103.632V102.992H246.644V103.632C246.644 105.376 249.156 107.008 251.716 107.312L251.236 108.368ZM252.452 110.432H239.46V109.376H252.452V110.432ZM250.756 111.424V116.992H241.108V111.424H242.404V113.104H249.46V111.424H250.756ZM242.404 114.112V115.936H249.46V114.112H242.404ZM265.755 117.168H264.443V102.832H265.755V117.168ZM256.203 112.352C258.395 112.352 260.587 112.176 262.971 111.68L263.115 112.8C260.603 113.312 258.379 113.472 256.075 113.472H254.891V104.224H256.203V112.352ZM279.554 109.584V117.216H278.242V102.832H279.554V108.496H281.922V109.584H279.554ZM270.434 112.512C272.994 112.512 274.834 112.416 276.898 112.032L277.042 113.12C274.866 113.552 272.946 113.632 270.258 113.632H269.122V104.208H275.794V105.296H270.434V112.512ZM284.312 114.72V116.224H282.856V114.72H284.312Z" fill="#6F6F6F"/>
<path d="M151.46 43.62V47.96H148.82V37.32H151.46V41.46H153.9V43.62H151.46ZM146.66 47.66C144.64 47.02 143.24 45.76 142.42 44.14C141.6 45.92 140.12 47.36 137.96 48.06L136.66 45.96C139.62 45 140.96 42.74 141.02 40.48H137.36V38.38H147.3V40.48H143.7C143.76 42.54 145.04 44.68 147.92 45.58L146.66 47.66ZM151.46 48.7V55.52H139.48V48.7H151.46ZM148.88 53.44V50.76H142.08V53.44H148.88ZM172.099 45.02H169.659V50.74H167.019V37.3H169.659V42.86H172.099V45.02ZM159.959 47.38C162.139 45.46 162.999 43.66 163.259 40.88H161.219V38.78H165.719C165.719 43.04 164.919 46.24 161.659 49.02L159.959 47.38ZM160.579 38.78C160.579 42.84 159.679 45.76 156.619 48.28L154.919 46.64C156.939 45.04 157.819 43.42 158.079 40.88H155.659V38.78H160.579ZM170.279 53.3V55.4H157.579V49.6H160.219V53.3H170.279ZM175.237 49.76L174.817 41.58L174.717 38.8H177.677L177.577 41.58L177.157 49.76H175.237ZM174.757 54.28V51.44H177.677V54.28H174.757Z" fill="#121212"/>
<path d="M66.8647 143.552H58.5127V142.224H68.5127V143.776C68.5127 144.256 68.5074 144.752 68.4967 145.264C68.4967 145.765 68.4807 146.299 68.4487 146.864C68.4167 147.429 68.3634 148.037 68.2887 148.688C68.214 149.328 68.1074 150.032 67.9687 150.8L66.3047 150.624C66.4434 149.909 66.55 149.243 66.6247 148.624C66.6994 147.995 66.7527 147.403 66.7847 146.848C66.8274 146.283 66.8487 145.749 66.8487 145.248C66.8594 144.736 66.8647 144.245 66.8647 143.776V143.552ZM70.1927 151.856V153.216H57.1207V151.856H70.1927ZM83.9594 140.784V155.216H82.3914V147.712H80.6794V154.512H79.1274V141.072H80.6794V146.368H82.3914V140.784H83.9594ZM73.6714 150.528C74.4288 150.517 75.1701 150.491 75.8954 150.448C76.6208 150.395 77.3994 150.299 78.2314 150.16L78.3754 151.504C77.4048 151.675 76.4981 151.781 75.6554 151.824C74.8128 151.867 73.9488 151.888 73.0634 151.888H72.0874V146.256H75.8954V143.616H72.0554V142.272H77.4794V147.584H73.6714V150.528ZM99.2462 152.144V153.504H86.1582V152.144H91.8542V148.736H87.7582V141.872H97.6462V143.2H89.4062V147.408H97.7742V148.736H93.5022V152.144H99.2462ZM117.143 152.112V153.456H104.055V152.112H107.111V148.352C106.535 148.032 106.082 147.621 105.751 147.12C105.431 146.608 105.271 146.032 105.271 145.392C105.271 144.816 105.399 144.299 105.655 143.84C105.922 143.371 106.29 142.971 106.759 142.64C107.239 142.309 107.804 142.059 108.455 141.888C109.106 141.707 109.815 141.616 110.583 141.616C111.351 141.616 112.06 141.707 112.711 141.888C113.362 142.059 113.922 142.309 114.391 142.64C114.86 142.971 115.228 143.371 115.495 143.84C115.762 144.299 115.895 144.816 115.895 145.392C115.895 146.032 115.73 146.603 115.399 147.104C115.079 147.605 114.631 148.021 114.055 148.352V152.112H117.143ZM110.583 142.912C110.039 142.912 109.538 142.971 109.079 143.088C108.62 143.205 108.226 143.371 107.895 143.584C107.575 143.797 107.324 144.059 107.143 144.368C106.962 144.667 106.871 145.008 106.871 145.392C106.871 145.776 106.962 146.123 107.143 146.432C107.324 146.741 107.575 147.003 107.895 147.216C108.226 147.429 108.62 147.595 109.079 147.712C109.538 147.829 110.039 147.888 110.583 147.888C111.127 147.888 111.623 147.829 112.071 147.712C112.53 147.595 112.919 147.429 113.239 147.216C113.57 147.003 113.826 146.741 114.007 146.432C114.188 146.123 114.279 145.776 114.279 145.392C114.279 145.008 114.188 144.667 114.007 144.368C113.826 144.059 113.57 143.797 113.239 143.584C112.919 143.371 112.53 143.205 112.071 143.088C111.623 142.971 111.127 142.912 110.583 142.912ZM108.759 152.112H112.407V148.96C112.13 149.035 111.836 149.088 111.527 149.12C111.218 149.152 110.903 149.168 110.583 149.168C109.932 149.168 109.324 149.104 108.759 148.976V152.112ZM129.854 144.208V145.952H131.854V147.312H129.854V149.344H128.206V140.784H129.854V142.848H131.854V144.208H129.854ZM126.446 145.088C126.446 145.6 126.35 146.069 126.158 146.496C125.966 146.923 125.694 147.291 125.342 147.6C125 147.899 124.595 148.133 124.126 148.304C123.656 148.475 123.144 148.56 122.59 148.56C122.046 148.56 121.539 148.475 121.07 148.304C120.6 148.133 120.19 147.899 119.838 147.6C119.496 147.291 119.23 146.923 119.038 146.496C118.846 146.069 118.75 145.6 118.75 145.088C118.75 144.576 118.846 144.107 119.038 143.68C119.23 143.253 119.496 142.891 119.838 142.592C120.19 142.283 120.6 142.043 121.07 141.872C121.539 141.701 122.046 141.616 122.59 141.616C123.144 141.616 123.656 141.701 124.126 141.872C124.595 142.043 125 142.283 125.342 142.592C125.694 142.891 125.966 143.253 126.158 143.68C126.35 144.107 126.446 144.576 126.446 145.088ZM120.366 145.088C120.366 145.728 120.574 146.235 120.99 146.608C121.416 146.981 121.95 147.168 122.59 147.168C123.24 147.168 123.774 146.981 124.19 146.608C124.616 146.235 124.83 145.728 124.83 145.088C124.83 144.448 124.616 143.941 124.19 143.568C123.774 143.195 123.24 143.008 122.59 143.008C121.95 143.008 121.416 143.195 120.99 143.568C120.574 143.941 120.366 144.448 120.366 145.088ZM120.35 149.984H129.854V155.248H128.206V151.312H120.35V149.984ZM139.621 145.984C137.946 145.984 136.666 145.771 135.781 145.344C134.906 144.917 134.469 144.304 134.469 143.504C134.469 142.693 134.906 142.075 135.781 141.648C136.666 141.221 137.946 141.008 139.621 141.008C141.285 141.008 142.559 141.221 143.445 141.648C144.33 142.075 144.773 142.693 144.773 143.504C144.773 144.304 144.33 144.917 143.445 145.344C142.559 145.771 141.285 145.984 139.621 145.984ZM139.621 142.24C138.49 142.24 137.631 142.347 137.045 142.56C136.469 142.773 136.181 143.088 136.181 143.504C136.181 143.909 136.469 144.219 137.045 144.432C137.631 144.645 138.49 144.752 139.621 144.752C140.751 144.752 141.605 144.645 142.181 144.432C142.767 144.219 143.061 143.909 143.061 143.504C143.061 143.088 142.767 142.773 142.181 142.56C141.605 142.347 140.751 142.24 139.621 142.24ZM146.165 146.832V148.144H133.077V146.832H146.165ZM136.293 153.84H144.933V155.104H134.661V151.472H142.901V150.432H134.629V149.184H144.517V152.64H136.293V153.84ZM162.893 151.312H161.245V140.8H162.893V151.312ZM159.069 149.376C158.237 149.099 157.523 148.693 156.925 148.16C156.328 147.627 155.869 147.003 155.549 146.288C155.229 147.056 154.765 147.733 154.157 148.32C153.56 148.907 152.829 149.344 151.965 149.632L151.101 148.352C151.677 148.16 152.184 147.904 152.621 147.584C153.069 147.264 153.443 146.901 153.741 146.496C154.051 146.091 154.285 145.653 154.445 145.184C154.605 144.715 154.685 144.24 154.685 143.76V143.232H151.549V141.904H159.453V143.232H156.365V143.76C156.365 144.219 156.445 144.672 156.605 145.12C156.765 145.557 156.995 145.968 157.293 146.352C157.603 146.725 157.976 147.061 158.413 147.36C158.851 147.659 159.347 147.899 159.901 148.08L159.069 149.376ZM163.309 153.616V154.96H153.453V150.352H155.117V153.616H163.309ZM174.66 149.408H173.124V141.04H174.66V144.544H176.164V140.768H177.732V149.888H176.164V145.904H174.66V149.408ZM172.628 143.696H165.428V142.4H168.228V140.912H169.844V142.4H172.628V143.696ZM172.148 146.816C172.148 147.189 172.068 147.531 171.908 147.84C171.759 148.149 171.546 148.416 171.268 148.64C171.002 148.853 170.676 149.019 170.292 149.136C169.919 149.253 169.503 149.312 169.044 149.312C168.596 149.312 168.18 149.253 167.796 149.136C167.423 149.019 167.098 148.853 166.82 148.64C166.554 148.416 166.34 148.149 166.18 147.84C166.031 147.531 165.956 147.189 165.956 146.816C165.956 146.443 166.031 146.107 166.18 145.808C166.34 145.499 166.554 145.237 166.82 145.024C167.098 144.8 167.423 144.629 167.796 144.512C168.18 144.384 168.596 144.32 169.044 144.32C169.503 144.32 169.919 144.384 170.292 144.512C170.676 144.629 171.002 144.8 171.268 145.024C171.546 145.237 171.759 145.499 171.908 145.808C172.068 146.107 172.148 146.443 172.148 146.816ZM167.428 146.816C167.428 147.211 167.572 147.525 167.86 147.76C168.159 147.995 168.554 148.112 169.044 148.112C169.524 148.112 169.914 147.995 170.212 147.76C170.522 147.525 170.676 147.211 170.676 146.816C170.676 146.421 170.522 146.107 170.212 145.872C169.914 145.637 169.524 145.52 169.044 145.52C168.554 145.52 168.159 145.637 167.86 145.872C167.572 146.107 167.428 146.421 167.428 146.816ZM172.932 150.096C174.511 150.096 175.716 150.315 176.548 150.752C177.391 151.189 177.812 151.824 177.812 152.656C177.812 153.488 177.391 154.123 176.548 154.56C175.716 155.008 174.511 155.232 172.932 155.232C171.354 155.232 170.143 155.008 169.3 154.56C168.458 154.123 168.036 153.488 168.036 152.656C168.036 151.824 168.458 151.189 169.3 150.752C170.143 150.315 171.354 150.096 172.932 150.096ZM172.932 153.984C175.087 153.984 176.164 153.541 176.164 152.656C176.164 151.781 175.087 151.344 172.932 151.344C171.898 151.344 171.098 151.451 170.532 151.664C169.967 151.877 169.684 152.208 169.684 152.656C169.684 153.104 169.967 153.44 170.532 153.664C171.098 153.877 171.898 153.984 172.932 153.984ZM193.467 147.968H191.243V155.248H189.579V140.784H191.243V146.592H193.467V147.968ZM185.035 143.008H188.411V144.352H179.947V143.008H183.387V140.992H185.035V143.008ZM184.235 145.376C184.747 145.376 185.222 145.461 185.659 145.632C186.096 145.792 186.475 146.021 186.795 146.32C187.115 146.619 187.366 146.976 187.547 147.392C187.728 147.797 187.819 148.251 187.819 148.752C187.819 149.243 187.728 149.696 187.547 150.112C187.366 150.528 187.115 150.885 186.795 151.184C186.475 151.483 186.096 151.717 185.659 151.888C185.222 152.048 184.747 152.128 184.235 152.128C183.712 152.128 183.232 152.048 182.795 151.888C182.358 151.717 181.979 151.483 181.659 151.184C181.339 150.885 181.088 150.528 180.907 150.112C180.736 149.696 180.651 149.243 180.651 148.752C180.651 148.251 180.736 147.797 180.907 147.392C181.088 146.976 181.339 146.619 181.659 146.32C181.979 146.021 182.358 145.792 182.795 145.632C183.232 145.461 183.712 145.376 184.235 145.376ZM184.235 150.768C184.822 150.768 185.302 150.587 185.675 150.224C186.059 149.851 186.251 149.36 186.251 148.752C186.251 148.144 186.059 147.659 185.675 147.296C185.302 146.923 184.822 146.736 184.235 146.736C183.648 146.736 183.163 146.923 182.779 147.296C182.406 147.659 182.219 148.144 182.219 148.752C182.219 149.36 182.406 149.851 182.779 150.224C183.163 150.587 183.648 150.768 184.235 150.768ZM206.434 140.768V155.264H204.77V140.768H206.434ZM199.874 144.352C199.874 145.024 199.959 145.685 200.13 146.336C200.311 146.976 200.562 147.579 200.882 148.144C201.212 148.699 201.607 149.2 202.066 149.648C202.535 150.085 203.052 150.432 203.618 150.688L202.658 152C201.826 151.605 201.1 151.035 200.482 150.288C199.874 149.541 199.404 148.667 199.074 147.664C198.743 148.731 198.263 149.669 197.634 150.48C197.015 151.28 196.268 151.893 195.394 152.32L194.418 150.944C194.994 150.688 195.516 150.331 195.986 149.872C196.455 149.413 196.855 148.891 197.186 148.304C197.516 147.717 197.772 147.088 197.954 146.416C198.135 145.733 198.226 145.045 198.226 144.352V141.984H199.874V144.352ZM221.288 149.056H219.72V140.784H221.288V149.056ZM209.144 148.192C210.584 147.616 211.667 146.917 212.392 146.096C213.118 145.264 213.55 144.283 213.688 143.152H209.816V141.824H215.4C215.4 142.891 215.24 143.856 214.92 144.72H216.824V141.088H218.376V148.864H216.824V146.064H214.264C213.806 146.768 213.224 147.403 212.52 147.968C211.816 148.523 210.963 149.003 209.96 149.408L209.144 148.192ZM219.528 150.352C219.528 150.725 219.587 151.093 219.704 151.456C219.822 151.819 219.998 152.16 220.232 152.48C220.467 152.789 220.76 153.072 221.112 153.328C221.464 153.584 221.87 153.792 222.328 153.952L221.528 155.152C220.824 154.907 220.238 154.555 219.768 154.096C219.299 153.637 218.942 153.115 218.696 152.528C218.472 153.104 218.147 153.637 217.72 154.128C217.294 154.619 216.744 155.003 216.072 155.28C215.4 155.024 214.846 154.656 214.408 154.176C213.971 153.707 213.64 153.179 213.416 152.592C213.15 153.168 212.787 153.675 212.328 154.112C211.87 154.56 211.304 154.907 210.632 155.152L209.816 153.952C210.275 153.781 210.68 153.568 211.032 153.312C211.384 153.045 211.678 152.752 211.912 152.432C212.147 152.112 212.323 151.776 212.44 151.424C212.568 151.061 212.632 150.704 212.632 150.352V149.536H214.232V150.352C214.232 150.971 214.376 151.584 214.664 152.192C214.963 152.789 215.422 153.291 216.04 153.696C216.691 153.237 217.166 152.709 217.464 152.112C217.763 151.515 217.912 150.928 217.912 150.352V149.536H219.528V150.352ZM235.583 140.768V155.264H233.919V147.504H231.119C231.077 148.208 230.954 148.837 230.751 149.392C230.549 149.947 230.287 150.421 229.967 150.816C229.647 151.211 229.274 151.515 228.847 151.728C228.421 151.931 227.962 152.032 227.471 152.032C226.938 152.032 226.447 151.915 225.999 151.68C225.551 151.435 225.167 151.093 224.847 150.656C224.527 150.219 224.277 149.685 224.095 149.056C223.914 148.416 223.823 147.707 223.823 146.928C223.823 146.149 223.914 145.451 224.095 144.832C224.277 144.203 224.527 143.669 224.847 143.232C225.167 142.784 225.551 142.443 225.999 142.208C226.447 141.963 226.938 141.84 227.471 141.84C227.951 141.84 228.399 141.941 228.815 142.144C229.242 142.347 229.615 142.635 229.935 143.008C230.255 143.381 230.517 143.835 230.719 144.368C230.922 144.901 231.05 145.499 231.103 146.16H233.919V140.768H235.583ZM227.471 150.56C228.111 150.56 228.618 150.245 228.991 149.616C229.375 148.987 229.567 148.091 229.567 146.928C229.567 145.797 229.375 144.917 228.991 144.288C228.618 143.648 228.111 143.328 227.471 143.328C226.853 143.328 226.351 143.648 225.967 144.288C225.583 144.917 225.391 145.797 225.391 146.928C225.391 148.091 225.583 148.987 225.967 149.616C226.351 150.245 226.853 150.56 227.471 150.56ZM251.19 152.112V153.456H238.102V152.112H241.158V148.352C240.582 148.032 240.129 147.621 239.798 147.12C239.478 146.608 239.318 146.032 239.318 145.392C239.318 144.816 239.446 144.299 239.702 143.84C239.969 143.371 240.337 142.971 240.806 142.64C241.286 142.309 241.851 142.059 242.502 141.888C243.153 141.707 243.862 141.616 244.63 141.616C245.398 141.616 246.107 141.707 246.758 141.888C247.409 142.059 247.969 142.309 248.438 142.64C248.907 142.971 249.275 143.371 249.542 143.84C249.809 144.299 249.942 144.816 249.942 145.392C249.942 146.032 249.777 146.603 249.446 147.104C249.126 147.605 248.678 148.021 248.102 148.352V152.112H251.19ZM244.63 142.912C244.086 142.912 243.585 142.971 243.126 143.088C242.667 143.205 242.273 143.371 241.942 143.584C241.622 143.797 241.371 144.059 241.19 144.368C241.009 144.667 240.918 145.008 240.918 145.392C240.918 145.776 241.009 146.123 241.19 146.432C241.371 146.741 241.622 147.003 241.942 147.216C242.273 147.429 242.667 147.595 243.126 147.712C243.585 147.829 244.086 147.888 244.63 147.888C245.174 147.888 245.67 147.829 246.118 147.712C246.577 147.595 246.966 147.429 247.286 147.216C247.617 147.003 247.873 146.741 248.054 146.432C248.235 146.123 248.326 145.776 248.326 145.392C248.326 145.008 248.235 144.667 248.054 144.368C247.873 144.059 247.617 143.797 247.286 143.584C246.966 143.371 246.577 143.205 246.118 143.088C245.67 142.971 245.174 142.912 244.63 142.912ZM242.806 152.112H246.454V148.96C246.177 149.035 245.883 149.088 245.574 149.12C245.265 149.152 244.95 149.168 244.63 149.168C243.979 149.168 243.371 149.104 242.806 148.976V152.112ZM254.909 150.768C254.855 150.096 254.871 149.541 254.957 149.104C255.053 148.667 255.186 148.304 255.357 148.016C255.538 147.728 255.735 147.488 255.949 147.296C256.173 147.104 256.381 146.912 256.573 146.72C256.765 146.528 256.925 146.315 257.053 146.08C257.191 145.835 257.261 145.52 257.261 145.136C257.261 144.773 257.218 144.475 257.133 144.24C257.047 144.005 256.93 143.824 256.781 143.696C256.642 143.557 256.482 143.467 256.301 143.424C256.119 143.371 255.933 143.344 255.741 143.344C255.25 143.344 254.855 143.499 254.557 143.808C254.258 144.107 254.082 144.656 254.029 145.456H252.445C252.477 144.891 252.562 144.405 252.701 144C252.85 143.595 253.026 143.253 253.229 142.976C253.442 142.688 253.677 142.464 253.933 142.304C254.189 142.133 254.439 142.005 254.685 141.92C254.93 141.824 255.159 141.76 255.373 141.728C255.586 141.696 255.762 141.68 255.901 141.68C256.391 141.68 256.829 141.781 257.213 141.984C257.597 142.176 257.922 142.432 258.189 142.752C258.455 143.072 258.658 143.435 258.797 143.84C258.935 144.235 259.005 144.635 259.005 145.04C259.005 145.573 258.935 146.011 258.797 146.352C258.669 146.683 258.503 146.971 258.301 147.216C258.109 147.451 257.901 147.669 257.677 147.872C257.453 148.064 257.25 148.283 257.069 148.528C256.887 148.773 256.743 149.072 256.637 149.424C256.53 149.765 256.498 150.213 256.541 150.768H254.909ZM256.637 152.224V154.208H254.749V152.224H256.637Z" fill="#121212"/>
<rect x="164" y="197" width="133" height="46" rx="16" fill="#396CFD"/>
<path d="M235.583 213.422V226.078H234.197V213.422H235.583ZM231.523 213.688H232.867V225.476H231.523V218.742H228.835V217.566H231.523V213.688ZM226.749 221.724C227.393 221.705 228.013 221.673 228.611 221.626C229.217 221.579 229.857 221.491 230.529 221.36L230.711 222.564C229.908 222.723 229.147 222.83 228.429 222.886C227.71 222.933 226.959 222.956 226.175 222.956H225.321V214.71H226.749V221.724Z" fill="white"/>
<rect x="20" y="197" width="133" height="46" rx="16" fill="#EEF0F2"/>
<path d="M79.8556 219.568H77.8816V226.092H76.4396V213.436H77.8816V218.378H79.8556V219.568ZM71.4556 214.36C71.9316 214.36 72.3656 214.467 72.7576 214.682C73.159 214.887 73.4996 215.186 73.7796 215.578C74.069 215.961 74.293 216.427 74.4516 216.978C74.6196 217.529 74.7036 218.145 74.7036 218.826C74.7036 219.507 74.6196 220.123 74.4516 220.674C74.293 221.225 74.069 221.691 73.7796 222.074C73.4996 222.457 73.159 222.755 72.7576 222.97C72.3656 223.175 71.9316 223.278 71.4556 223.278C70.9796 223.278 70.541 223.175 70.1396 222.97C69.7476 222.755 69.407 222.457 69.1176 222.074C68.8376 221.691 68.6136 221.225 68.4456 220.674C68.287 220.123 68.2076 219.507 68.2076 218.826C68.2076 218.145 68.287 217.529 68.4456 216.978C68.6136 216.427 68.8376 215.961 69.1176 215.578C69.407 215.186 69.7476 214.887 70.1396 214.682C70.541 214.467 70.9796 214.36 71.4556 214.36ZM71.4556 221.99C72.0156 221.99 72.4636 221.71 72.7996 221.15C73.145 220.59 73.3176 219.815 73.3176 218.826C73.3176 217.837 73.145 217.062 72.7996 216.502C72.4636 215.942 72.0156 215.662 71.4556 215.662C70.8956 215.662 70.443 215.942 70.0976 216.502C69.7616 217.062 69.5936 217.837 69.5936 218.826C69.5936 219.815 69.7616 220.59 70.0976 221.15C70.443 221.71 70.8956 221.99 71.4556 221.99ZM91.2185 213.436V226.078H89.7765V213.436H91.2185ZM82.9445 221.654C83.8499 221.645 84.7645 221.598 85.6885 221.514C86.6219 221.43 87.5972 221.285 88.6145 221.08L88.7685 222.284C87.6672 222.508 86.6079 222.667 85.5905 222.76C84.5825 222.844 83.5839 222.886 82.5945 222.886H81.5165V214.668H82.9445V221.654ZM104.905 223.348V224.524H93.4535V223.348H98.4375V220.926C97.8588 220.87 97.3268 220.753 96.8415 220.576C96.3655 220.389 95.9548 220.156 95.6095 219.876C95.2641 219.587 94.9935 219.251 94.7975 218.868C94.6108 218.476 94.5175 218.042 94.5175 217.566C94.5175 217.043 94.6341 216.577 94.8675 216.166C95.1008 215.746 95.4228 215.391 95.8335 215.102C96.2441 214.803 96.7341 214.575 97.3035 214.416C97.8728 214.257 98.4935 214.178 99.1655 214.178C99.8375 214.178 100.453 214.257 101.013 214.416C101.583 214.575 102.073 214.803 102.483 215.102C102.903 215.391 103.23 215.746 103.463 216.166C103.697 216.577 103.813 217.043 103.813 217.566C103.813 218.033 103.715 218.462 103.519 218.854C103.333 219.246 103.062 219.587 102.707 219.876C102.362 220.165 101.947 220.403 101.461 220.59C100.985 220.767 100.458 220.884 99.8795 220.94V223.348H104.905ZM95.9175 217.566C95.9175 217.911 95.9968 218.224 96.1555 218.504C96.3235 218.775 96.5475 219.008 96.8275 219.204C97.1168 219.4 97.4575 219.549 97.8495 219.652C98.2508 219.755 98.6895 219.806 99.1655 219.806C99.6321 219.806 100.061 219.755 100.453 219.652C100.855 219.549 101.2 219.4 101.489 219.204C101.779 219.008 102.003 218.775 102.161 218.504C102.32 218.224 102.399 217.911 102.399 217.566C102.399 217.221 102.32 216.913 102.161 216.642C102.003 216.362 101.779 216.124 101.489 215.928C101.2 215.732 100.855 215.583 100.453 215.48C100.061 215.377 99.6321 215.326 99.1655 215.326C98.6895 215.326 98.2508 215.377 97.8495 215.48C97.4575 215.583 97.1168 215.732 96.8275 215.928C96.5475 216.124 96.3235 216.362 96.1555 216.642C95.9968 216.913 95.9175 217.221 95.9175 217.566Z" fill="#6F6F6F"/>
</svg>
